<svg xmlns="http://www.w3.org/2000/svg" xmlns:xlink="http://www.w3.org/1999/xlink" width="50" zoomAndPan="magnify" viewBox="0 0 37.5 37.499999" height="50" preserveAspectRatio="xMidYMid meet" version="1.0"><defs><g/><clipPath id="e1fd2285a6"><path d="M 0 0 L 37.007812 0 L 37.007812 37.007812 L 0 37.007812 Z M 0 0 " clip-rule="nonzero"/></clipPath></defs><g clip-path="url(#e1fd2285a6)"><path stroke-linecap="butt" transform="matrix(0.740131, 0, 0, 0.740131, 0.0000005, 0.000000000000002629)" fill="none" stroke-linejoin="miter" d="M -0.000000675556 -0.000000000000003553 L 50.001673 -0.000000000000003553 L 50.001673 50.001673 L -0.000000675556 50.001673 Z M -0.000000675556 -0.000000000000003553 " stroke="#01aaff" stroke-width="2" stroke-opacity="1" stroke-miterlimit="4"/></g><g fill="#01aaff" fill-opacity="1"><g transform="translate(5.333191, 32.592588)"><g><path d="M 3.453125 0 C 2.972656 0 2.566406 -0.164062 2.234375 -0.5 C 1.898438 -0.84375 1.734375 -1.253906 1.734375 -1.734375 L 1.734375 -21.640625 C 1.734375 -23.265625 2.09375 -24.707031 2.8125 -25.96875 C 3.539062 -27.238281 4.535156 -28.234375 5.796875 -28.953125 C 7.066406 -29.679688 8.515625 -30.046875 10.140625 -30.046875 L 16.1875 -30.046875 C 17.8125 -30.046875 19.253906 -29.679688 20.515625 -28.953125 C 21.785156 -28.234375 22.785156 -27.238281 23.515625 -25.96875 C 24.242188 -24.707031 24.609375 -23.265625 24.609375 -21.640625 L 24.609375 -1.734375 C 24.609375 -1.253906 24.441406 -0.84375 24.109375 -0.5 C 23.785156 -0.164062 23.375 0 22.875 0 L 16.609375 0 C 16.128906 0 15.71875 -0.164062 15.375 -0.5 C 15.039062 -0.84375 14.875 -1.253906 14.875 -1.734375 L 14.875 -6.578125 C 14.875 -7.046875 14.707031 -7.445312 14.375 -7.78125 C 14.050781 -8.125 13.640625 -8.296875 13.140625 -8.296875 C 12.671875 -8.296875 12.269531 -8.132812 11.9375 -7.8125 C 11.613281 -7.488281 11.453125 -7.078125 11.453125 -6.578125 L 11.453125 -1.734375 C 11.453125 -1.253906 11.289062 -0.84375 10.96875 -0.5 C 10.644531 -0.164062 10.234375 0 9.734375 0 Z M 13.140625 -15.28125 C 13.640625 -15.28125 14.050781 -15.441406 14.375 -15.765625 C 14.707031 -16.097656 14.875 -16.503906 14.875 -16.984375 L 14.875 -20.4375 C 14.875 -20.9375 14.707031 -21.347656 14.375 -21.671875 C 14.050781 -21.992188 13.640625 -22.15625 13.140625 -22.15625 C 12.671875 -22.15625 12.269531 -21.992188 11.9375 -21.671875 C 11.613281 -21.347656 11.453125 -20.9375 11.453125 -20.4375 L 11.453125 -16.984375 C 11.453125 -16.503906 11.613281 -16.097656 11.9375 -15.765625 C 12.269531 -15.441406 12.671875 -15.28125 13.140625 -15.28125 Z M 13.140625 -15.28125 "/></g></g></g></svg>