<svg xmlns="http://www.w3.org/2000/svg" xmlns:xlink="http://www.w3.org/1999/xlink" width="200" zoomAndPan="magnify" viewBox="0 0 150 74.999997" height="100" preserveAspectRatio="xMidYMid meet" version="1.0"><defs><g/><clipPath id="181bfd248e"><path d="M 7.5 7.5 L 142.5 7.5 L 142.5 67.5 L 7.5 67.5 Z M 7.5 7.5 " clip-rule="nonzero"/></clipPath></defs><g clip-path="url(#181bfd248e)"><path stroke-linecap="butt" transform="matrix(0.75, 0, 0, 0.75, 7.500004, 7.499998)" fill="none" stroke-linejoin="miter" d="M -0.00000574333 0.00000215 L 179.999997 0.00000215 L 179.999997 80.000004 L -0.00000574333 80.000004 Z M -0.00000574333 0.00000215 " stroke="#01aaff" stroke-width="4" stroke-opacity="1" stroke-miterlimit="4"/></g><g fill="#01aaff" fill-opacity="1"><g transform="translate(9.354688, 51.749995)"><g><path d="M 3.5 0 C 3.019531 0 2.609375 -0.171875 2.265625 -0.515625 C 1.921875 -0.859375 1.75 -1.269531 1.75 -1.75 L 1.75 -21.890625 C 1.75 -23.535156 2.113281 -25 2.84375 -26.28125 C 3.582031 -27.5625 4.59375 -28.566406 5.875 -29.296875 C 7.15625 -30.035156 8.617188 -30.40625 10.265625 -30.40625 L 16.375 -30.40625 C 18.019531 -30.40625 19.484375 -30.035156 20.765625 -29.296875 C 22.046875 -28.566406 23.050781 -27.5625 23.78125 -26.28125 C 24.519531 -25 24.890625 -23.535156 24.890625 -21.890625 L 24.890625 -1.75 C 24.890625 -1.269531 24.722656 -0.859375 24.390625 -0.515625 C 24.066406 -0.171875 23.648438 0 23.140625 0 L 16.796875 0 C 16.316406 0 15.90625 -0.171875 15.5625 -0.515625 C 15.21875 -0.859375 15.046875 -1.269531 15.046875 -1.75 L 15.046875 -6.65625 C 15.046875 -7.132812 14.878906 -7.539062 14.546875 -7.875 C 14.222656 -8.21875 13.804688 -8.390625 13.296875 -8.390625 C 12.816406 -8.390625 12.410156 -8.222656 12.078125 -7.890625 C 11.753906 -7.566406 11.59375 -7.15625 11.59375 -6.65625 L 11.59375 -1.75 C 11.59375 -1.269531 11.425781 -0.859375 11.09375 -0.515625 C 10.769531 -0.171875 10.351562 0 9.84375 0 Z M 13.296875 -15.46875 C 13.804688 -15.46875 14.222656 -15.628906 14.546875 -15.953125 C 14.878906 -16.285156 15.046875 -16.691406 15.046875 -17.171875 L 15.046875 -20.671875 C 15.046875 -21.179688 14.878906 -21.597656 14.546875 -21.921875 C 14.222656 -22.253906 13.804688 -22.421875 13.296875 -22.421875 C 12.816406 -22.421875 12.410156 -22.253906 12.078125 -21.921875 C 11.753906 -21.597656 11.59375 -21.179688 11.59375 -20.671875 L 11.59375 -17.171875 C 11.59375 -16.691406 11.753906 -16.285156 12.078125 -15.953125 C 12.410156 -15.628906 12.816406 -15.46875 13.296875 -15.46875 Z M 13.296875 -15.46875 "/></g></g></g><g fill="#01aaff" fill-opacity="1"><g transform="translate(35.987251, 51.749995)"><g><path d="M 10.265625 0 C 8.617188 0 7.15625 -0.363281 5.875 -1.09375 C 4.59375 -1.832031 3.582031 -2.847656 2.84375 -4.140625 C 2.113281 -5.429688 1.75 -6.898438 1.75 -8.546875 L 1.75 -21.890625 C 1.75 -23.535156 2.113281 -25 2.84375 -26.28125 C 3.582031 -27.5625 4.59375 -28.566406 5.875 -29.296875 C 7.15625 -30.035156 8.617188 -30.40625 10.265625 -30.40625 L 28.84375 -30.40625 C 29.351562 -30.40625 29.769531 -30.238281 30.09375 -29.90625 C 30.425781 -29.570312 30.59375 -29.15625 30.59375 -28.65625 L 30.59375 -23.59375 C 30.59375 -23.113281 30.425781 -22.703125 30.09375 -22.359375 C 29.769531 -22.015625 29.351562 -21.84375 28.84375 -21.84375 L 13.296875 -21.84375 C 12.816406 -21.84375 12.410156 -21.675781 12.078125 -21.34375 C 11.753906 -21.019531 11.59375 -20.609375 11.59375 -20.109375 L 11.59375 -10.296875 C 11.59375 -9.816406 11.753906 -9.410156 12.078125 -9.078125 C 12.410156 -8.753906 12.816406 -8.59375 13.296875 -8.59375 L 28.84375 -8.59375 C 29.351562 -8.59375 29.769531 -8.425781 30.09375 -8.09375 C 30.425781 -7.757812 30.59375 -7.34375 30.59375 -6.84375 L 30.59375 -1.78125 C 30.59375 -1.300781 30.425781 -0.882812 30.09375 -0.53125 C 29.769531 -0.175781 29.351562 0 28.84375 0 Z M 10.265625 0 "/></g></g></g><g fill="#01aaff" fill-opacity="1"><g transform="translate(68.318639, 51.749995)"><g><path d="M 3.5 0 C 3.019531 0 2.609375 -0.171875 2.265625 -0.515625 C 1.921875 -0.859375 1.75 -1.269531 1.75 -1.75 L 1.75 -28.65625 C 1.75 -29.15625 1.921875 -29.570312 2.265625 -29.90625 C 2.609375 -30.238281 3.019531 -30.40625 3.5 -30.40625 L 16.484375 -30.40625 C 16.992188 -30.40625 17.410156 -30.238281 17.734375 -29.90625 C 18.066406 -29.570312 18.234375 -29.15625 18.234375 -28.65625 L 18.234375 -25.6875 C 18.234375 -25.207031 18.398438 -24.800781 18.734375 -24.46875 C 19.066406 -24.144531 19.472656 -23.984375 19.953125 -23.984375 C 20.453125 -23.984375 20.867188 -24.144531 21.203125 -24.46875 C 21.535156 -24.800781 21.703125 -25.207031 21.703125 -25.6875 L 21.703125 -28.65625 C 21.703125 -29.15625 21.867188 -29.570312 22.203125 -29.90625 C 22.546875 -30.238281 22.960938 -30.40625 23.453125 -30.40625 L 36.4375 -30.40625 C 36.945312 -30.40625 37.363281 -30.238281 37.6875 -29.90625 C 38.019531 -29.570312 38.1875 -29.15625 38.1875 -28.65625 L 38.1875 -1.75 C 38.1875 -1.269531 38.019531 -0.859375 37.6875 -0.515625 C 37.363281 -0.171875 36.945312 0 36.4375 0 L 30.09375 0 C 29.613281 0 29.203125 -0.171875 28.859375 -0.515625 C 28.515625 -0.859375 28.34375 -1.269531 28.34375 -1.75 L 28.34375 -19.453125 C 28.34375 -19.929688 28.175781 -20.335938 27.84375 -20.671875 C 27.519531 -21.003906 27.101562 -21.171875 26.59375 -21.171875 C 26.113281 -21.171875 25.707031 -21.003906 25.375 -20.671875 C 25.050781 -20.335938 24.890625 -19.929688 24.890625 -19.453125 L 24.890625 -1.75 C 24.890625 -1.269531 24.722656 -0.859375 24.390625 -0.515625 C 24.066406 -0.171875 23.648438 0 23.140625 0 L 16.796875 0 C 16.316406 0 15.90625 -0.171875 15.5625 -0.515625 C 15.21875 -0.859375 15.046875 -1.269531 15.046875 -1.75 L 15.046875 -19.453125 C 15.046875 -19.929688 14.878906 -20.335938 14.546875 -20.671875 C 14.222656 -21.003906 13.804688 -21.171875 13.296875 -21.171875 C 12.816406 -21.171875 12.410156 -21.003906 12.078125 -20.671875 C 11.753906 -20.335938 11.59375 -19.929688 11.59375 -19.453125 L 11.59375 -1.75 C 11.59375 -1.269531 11.425781 -0.859375 11.09375 -0.515625 C 10.769531 -0.171875 10.351562 0 9.84375 0 Z M 3.5 0 "/></g></g></g><g fill="#01aaff" fill-opacity="1"><g transform="translate(108.24848, 51.749995)"><g><path d="M 3.5 0 C 3.019531 0 2.609375 -0.171875 2.265625 -0.515625 C 1.921875 -0.859375 1.75 -1.269531 1.75 -1.75 L 1.75 -28.65625 C 1.75 -29.15625 1.921875 -29.570312 2.265625 -29.90625 C 2.609375 -30.238281 3.019531 -30.40625 3.5 -30.40625 L 28.875 -30.40625 C 29.382812 -30.40625 29.800781 -30.238281 30.125 -29.90625 C 30.457031 -29.570312 30.625 -29.15625 30.625 -28.65625 L 30.625 -24.171875 C 30.625 -23.691406 30.457031 -23.28125 30.125 -22.9375 C 29.800781 -22.59375 29.382812 -22.421875 28.875 -22.421875 L 13.296875 -22.421875 C 12.816406 -22.421875 12.410156 -22.253906 12.078125 -21.921875 C 11.753906 -21.597656 11.59375 -21.179688 11.59375 -20.671875 C 11.59375 -20.191406 11.753906 -19.785156 12.078125 -19.453125 C 12.410156 -19.128906 12.816406 -18.96875 13.296875 -18.96875 L 27.359375 -18.96875 C 27.867188 -18.96875 28.285156 -18.800781 28.609375 -18.46875 C 28.941406 -18.132812 29.109375 -17.71875 29.109375 -17.21875 L 29.109375 -13.21875 C 29.109375 -12.738281 28.941406 -12.328125 28.609375 -11.984375 C 28.285156 -11.640625 27.867188 -11.46875 27.359375 -11.46875 L 13.296875 -11.46875 C 12.816406 -11.46875 12.410156 -11.296875 12.078125 -10.953125 C 11.753906 -10.617188 11.59375 -10.210938 11.59375 -9.734375 C 11.59375 -9.242188 11.753906 -8.832031 12.078125 -8.5 C 12.410156 -8.175781 12.816406 -8.015625 13.296875 -8.015625 L 28.875 -8.015625 C 29.382812 -8.015625 29.800781 -7.847656 30.125 -7.515625 C 30.457031 -7.191406 30.625 -6.773438 30.625 -6.265625 L 30.625 -1.75 C 30.625 -1.269531 30.457031 -0.859375 30.125 -0.515625 C 29.800781 -0.171875 29.382812 0 28.875 0 Z M 3.5 0 "/></g></g></g></svg>